<svg xmlns="http://www.w3.org/2000/svg" viewBox="0 0 900 1080"><g id="Layer_2" data-name="Layer 2"><g id="Layer_1-2" data-name="Layer 1"><g id="shield"><path d="M591.26,65C530.83,50.14,450,0,450,0S369.17,50.14,308.74,65C256.67,77.89,0,111,0,111V647.53C0,886.37,450,1080,450,1080S900,886.37,900,647.53V111S643.33,77.89,591.26,65ZM450,142.52A374,374,0,0,1,725.64,263.27H688.7a348.72,348.72,0,0,0-477.4,0H174.36A374,374,0,0,1,450,142.52ZM138.75,270.77h622.5v67.5h-270V408l7.5,2.16,23.41,6.71L520,424.39l-21.26-6.09-7.5-2.15-7.5-2.15-67.5-19.36-7.32-2.1-7.68-2.2-24.65-7.07-2,6.9,26.63,7.63L409,400l7.29,2.09L450,411.78v8.14l33.75,9.68,7.5,2.16v95.1l-7.5-2.16L450,515l-33.75-9.68-6.95-2-8.05-2.31L327.78,480h81.44L409,408.16,401.25,406l-28.79-8.26,2.16-7.52-62.78-18L316,357.75l85.28,24.45,7.66,2.19-.14-38.62,0-7.5h-270ZM75,517.52a373.38,373.38,0,0,1,41.56-171.75h29.85a349.91,349.91,0,0,0-33.93,259.88l-29-8.3h0A376.82,376.82,0,0,1,75,517.52ZM401.25,889.38C249,869.62,125.44,758.56,87.24,612.91L117,621.45c39.55,126.84,149.57,222.6,284.25,241.44Zm90,3.14H410.6v-2l-.09-24.67v-1.74L410,716.55,401.25,714l-71.81-20.59,2.93-10.24L401.25,703l8.73,2.5,6.27,1.81L432,711.77l1.2-4.18,2.64-9.21-19.59-5.62L409.93,691l-.5-150.1,6.82,1.95L450,552.48l33.75,9.92,7.5,2.2,7.5,2.2,32.63,9.6H491.25V724.24l7.5,2.15,41,11.76-4.13,14.42L498.75,742l-7.5-2.15Zm7.5-3.14V862.89c169.53-23.71,300-169.3,300-345.37a347.1,347.1,0,0,0-45.16-171.75h29.85A373.38,373.38,0,0,1,825,517.52C825,708.1,682.82,865.48,498.75,889.38Z" style="fill:#a3cced"/></g></g></g></svg>